<svg width="640" height="360" viewBox="0 0 640 360" fill="none" xmlns="http://www.w3.org/2000/svg">
<rect width="640" height="360" fill="white"/>
<rect x="239" y="133" width="88" height="88" rx="20" fill="#FBD87F"/>
<path d="M255.842 141.834H266.138C266.242 147.19 266.424 152.494 266.684 157.746C266.632 158.474 266.658 159.176 266.762 159.852L287.276 156.498L288.68 163.83L267.23 167.418C267.49 172.41 268.036 177.35 268.868 182.238C272.508 177.87 275.628 173.138 278.228 168.042L286.496 171.864C284.156 175.868 281.608 179.69 278.852 183.33C276.46 186.398 273.86 189.258 271.052 191.91C271.78 194.666 272.95 197.214 274.562 199.554C275.082 200.438 275.706 201.192 276.434 201.816C277.11 202.336 277.864 202.622 278.696 202.674C279.892 202.674 280.932 202.284 281.816 201.504C283.272 200.204 284.546 198.774 285.638 197.214H290.318C289.122 199.554 287.874 201.816 286.574 204C285.638 205.612 284.572 207.12 283.376 208.524C282.492 209.616 281.426 210.448 280.178 211.02C279.294 211.384 278.41 211.592 277.526 211.644C275.238 211.644 273.184 210.968 271.364 209.616C269.232 207.848 267.464 205.768 266.06 203.376C264.916 201.712 263.98 199.918 263.252 197.994C258.416 201.114 253.346 203.688 248.042 205.716L246.17 201.036C251.37 198.072 256.232 194.562 260.756 190.506C259.04 183.486 257.922 176.336 257.402 169.056L249.29 170.382L247.886 162.972L256.778 161.49L256.544 157.044C256.18 152 255.946 146.93 255.842 141.834ZM296.168 203.844L303.11 204.234C303.786 204.234 304.462 204.156 305.138 204C305.502 203.844 305.814 203.636 306.074 203.376C306.386 202.908 306.594 202.388 306.698 201.816C306.802 200.984 306.854 200.126 306.854 199.242V141.912H316.682V201.972C316.682 203.48 316.5 204.988 316.136 206.496C315.772 207.692 315.122 208.68 314.186 209.46C313.354 210.032 312.47 210.448 311.534 210.708C309.61 211.124 307.686 211.332 305.762 211.332C304.202 211.332 302.694 211.072 301.238 210.552C299.418 209.772 297.728 208.784 296.168 207.588V203.844ZM291.176 148.776H301.004V189.336C301.004 190.844 300.484 192.092 299.444 193.08C298.456 193.912 297.338 194.302 296.09 194.25H291.176V148.776ZM266.762 147.216L272.534 142.926C276.122 146.67 279.762 150.336 283.454 153.924L281.192 157.044C275.42 155.172 270.61 151.896 266.762 147.216Z" fill="white"/>
<path d="M328.07 154.704H342.11C339.562 153.508 337.404 151.87 335.636 149.79C334.076 147.71 332.958 145.396 332.282 142.848L341.798 140.898L346.868 153.534L344.762 154.704H351.782V162.426C349.91 166.17 347.83 169.732 345.542 173.112L346.4 172.41C349.208 175.322 352.12 178.13 355.136 180.834V151.818H370.97V141.6H380.096V151.818H395.852V189.648C395.904 191.728 395.254 193.496 393.902 194.952C393.07 195.68 392.134 196.2 391.094 196.512C389.794 196.876 388.468 197.032 387.116 196.98H380.096V206.964C380.096 208.212 379.706 209.33 378.926 210.318C377.99 211.358 376.846 211.878 375.494 211.878H370.97V196.98H355.136V183.642L353.966 185.748C350.69 185.124 347.674 183.902 344.918 182.082V206.808C344.918 208.264 344.398 209.486 343.358 210.474C342.37 211.306 341.252 211.722 340.004 211.722H335.012V185.124C332.1 187.568 329.006 189.648 325.73 191.364L323.936 186.294C327.368 182.914 330.436 179.196 333.14 175.14C335.844 171.084 338.288 166.872 340.472 162.504H328.07V154.704ZM363.794 177.714V189.648H370.97V177.714H363.794ZM380.096 189.648H387.116V177.714H380.096V189.648ZM363.794 158.994V170.538H370.97V158.994H363.794ZM387.116 158.994H380.096V170.538H387.116V158.994Z" fill="black"/>
</svg>
