<svg width="640" height="360" viewBox="0 0 640 360" fill="none" xmlns="http://www.w3.org/2000/svg">
<rect width="640" height="360" fill="white"/>
<path d="M220.803 152.064H252.419C253.187 152.107 253.677 152.427 253.891 153.024C254.488 156.736 254.893 159.125 255.107 160.192C255.149 161.003 254.808 161.493 254.083 161.664C253.144 159.616 251.267 158.549 248.451 158.464H233.859V173.44H251.395C251.736 173.483 251.907 173.653 251.907 173.952V179.008C251.907 179.392 251.736 179.584 251.395 179.584H233.859V193.408C233.859 198.869 230.467 202.155 223.683 203.264H223.427C223.043 203.264 222.851 203.093 222.851 202.752V160.064C222.765 157.077 221.293 154.859 218.435 153.408C218.435 152.512 219.224 152.064 220.803 152.064ZM270.073 166.528C270.627 166.528 270.862 166.869 270.777 167.552V191.808C270.777 194.752 272.099 196.245 274.745 196.288H276.281C278.883 196.288 280.782 194.795 281.977 191.808V176.448C281.977 174.187 280.569 172.203 277.753 170.496V170.24C277.753 169.6 278.243 169.216 279.225 169.088C285.027 167.893 289.251 167.04 291.897 166.528C292.323 166.443 292.494 166.699 292.409 167.296V202.112C292.494 202.795 292.217 203.093 291.577 203.008C287.182 203.221 283.982 201.557 281.977 198.016H281.721C279.502 201.173 276.686 202.752 273.273 202.752H270.521C263.737 201.941 260.345 198.784 260.345 193.28V177.728C260.345 174.613 258.937 172.203 256.121 170.496V170.24C256.121 169.643 256.526 169.28 257.337 169.152C263.267 167.872 267.513 166.997 270.073 166.528ZM319.819 167.424C328.651 167.424 333.814 170.965 335.307 178.048C335.478 179.243 335.563 180.224 335.563 180.992C335.606 181.76 335.371 182.187 334.859 182.272H328.331C327.99 182.101 327.777 181.803 327.691 181.376C327.051 175.915 324.427 173.141 319.819 173.056C314.699 173.611 312.097 177.941 312.011 186.048C312.011 192.149 314.507 195.883 319.499 197.248C324.491 198.571 328.779 197.461 332.363 193.92C332.662 193.835 332.939 193.856 333.195 193.984C333.793 194.411 334.369 195.008 334.923 195.776C335.222 196.075 335.286 196.416 335.115 196.8C331.446 201.536 326.262 203.904 319.563 203.904C312.609 203.776 307.745 201.792 304.971 197.952C302.241 194.069 301.025 189.739 301.323 184.96C302.39 173.44 308.555 167.595 319.819 167.424ZM353.364 150.656C354.004 150.784 354.303 151.125 354.26 151.68V170.112C356.522 168.149 359.06 167.168 361.876 167.168H363.86C369.834 167.296 373.695 169.899 375.444 174.976C375.743 176.597 375.892 178.069 375.892 179.392V197.44C376.063 200.469 374.506 202.325 371.22 203.008C368.532 203.008 366.89 203.008 366.292 203.008H366.1C365.759 203.008 365.588 202.837 365.588 202.496V178.688C365.332 174.763 363.54 172.8 360.212 172.8C356.97 172.757 354.986 173.973 354.26 176.448V200.896C354.26 201.579 354.175 202.112 354.004 202.496C353.876 202.88 353.471 203.051 352.788 203.008L344.66 203.072C344.148 202.944 343.914 202.603 343.956 202.048V160.704C343.999 158.315 342.591 156.267 339.732 154.56C339.69 154.091 339.967 153.728 340.564 153.472C346.58 152.064 350.847 151.125 353.364 150.656ZM396.198 166.528C396.752 166.528 396.987 166.869 396.902 167.552V191.808C396.902 194.752 398.224 196.245 400.87 196.288H402.406C405.008 196.288 406.907 194.795 408.102 191.808V176.448C408.102 174.187 406.694 172.203 403.878 170.496V170.24C403.878 169.6 404.368 169.216 405.35 169.088C411.152 167.893 415.376 167.04 418.022 166.528C418.448 166.443 418.619 166.699 418.534 167.296V202.112C418.619 202.795 418.342 203.093 417.702 203.008C413.307 203.221 410.107 201.557 408.102 198.016H407.846C405.627 201.173 402.811 202.752 399.398 202.752H396.646C389.862 201.941 386.47 198.784 386.47 193.28V177.728C386.47 174.613 385.062 172.203 382.246 170.496V170.24C382.246 169.643 382.651 169.28 383.462 169.152C389.392 167.872 393.638 166.997 396.198 166.528Z" fill="black"/>
<path d="M221 216.875C228.469 216.292 235.747 214.497 243.162 213.501C261.997 210.969 281.298 211.059 300.256 210.673C331.783 210.031 363.478 209.704 395.016 210.354C403.012 210.519 410.799 211.95 418.82 211.95" stroke="black" stroke-width="10" stroke-linecap="round"/>
<path d="M218.222 137.16C218.222 137.387 218.292 137.587 218.432 137.76C218.618 137.953 218.848 138.05 219.122 138.05C219.382 138.05 219.602 137.953 219.782 137.76C219.942 137.587 220.025 137.387 220.032 137.16C220.025 136.927 219.942 136.723 219.782 136.55C219.602 136.35 219.382 136.247 219.122 136.24C218.882 136.247 218.675 136.33 218.502 136.49C218.315 136.67 218.222 136.893 218.222 137.16ZM219.962 138.84C220.015 138.86 220.042 138.89 220.042 138.93V143.54C220.062 144.167 219.605 144.48 218.672 144.48C218.445 144.473 218.332 144.433 218.332 144.36V140.76C218.332 140.14 218.092 139.717 217.612 139.49C217.598 139.363 217.668 139.29 217.822 139.27C219.048 139.003 219.762 138.86 219.962 138.84ZM225.127 138.91H225.197C225.811 138.917 226.251 139.153 226.517 139.62C226.904 139.153 227.434 138.923 228.107 138.93H228.187C229.074 138.93 229.667 139.28 229.967 139.98C230.021 140.18 230.044 140.347 230.037 140.48L230.027 143.71C229.994 144.19 229.641 144.463 228.967 144.53C228.807 144.537 228.654 144.537 228.507 144.53C228.454 144.517 228.431 144.477 228.437 144.41L228.447 140.75C228.454 140.15 228.201 139.837 227.687 139.81C227.341 139.837 227.067 140.033 226.867 140.4L226.857 144.02C226.877 144.333 226.757 144.5 226.497 144.52H225.407C225.354 144.513 225.331 144.47 225.337 144.39L225.347 140.78C225.354 140.153 225.111 139.833 224.617 139.82C224.244 139.833 223.957 139.98 223.757 140.26L223.747 143.96C223.774 144.327 223.637 144.51 223.337 144.51C222.644 144.51 222.274 144.51 222.227 144.51C222.161 144.497 222.121 144.45 222.107 144.37L222.127 140.45C222.127 140.097 221.907 139.797 221.467 139.55C221.461 139.437 221.534 139.367 221.687 139.34C222.441 139.173 223.057 139.047 223.537 138.96C223.624 138.96 223.661 139.01 223.647 139.11V139.52C223.994 139.113 224.487 138.91 225.127 138.91ZM233.515 143.6C233.768 143.6 233.978 143.53 234.145 143.39C234.312 143.243 234.395 143.05 234.395 142.81V141.71C234.275 141.73 234.145 141.76 234.005 141.8C233.865 141.84 233.732 141.887 233.605 141.94C233.352 142.033 233.162 142.167 233.035 142.34C232.915 142.513 232.855 142.707 232.855 142.92C232.855 143.14 232.912 143.31 233.025 143.43C233.145 143.543 233.308 143.6 233.515 143.6ZM233.815 138.79C234.902 138.79 235.595 139.203 235.895 140.03C235.962 140.203 236.002 140.42 236.015 140.68V142.4C236.015 143.487 236.208 144.093 236.595 144.22C236.662 144.22 236.695 144.243 236.695 144.29V144.33C236.695 144.37 236.662 144.41 236.595 144.45H235.745C235.245 144.45 234.908 144.19 234.735 143.67V143.64H234.695C234.388 144.207 233.888 144.49 233.195 144.49C231.928 144.483 231.295 143.977 231.295 142.97C231.302 141.91 232.332 141.227 234.385 140.92V140.53C234.378 139.957 234.148 139.647 233.695 139.6H233.505C233.018 139.687 232.762 140.007 232.735 140.56C232.735 140.673 232.695 140.727 232.615 140.72H231.645C231.592 140.727 231.555 140.69 231.535 140.61V140.41C231.535 139.67 231.998 139.167 232.925 138.9C233.185 138.827 233.482 138.79 233.815 138.79Z" fill="black"/>
<path d="M236.848 218.56C236.895 218.567 236.928 218.59 236.948 218.63L237.198 219.71C237.185 219.803 237.138 219.85 237.058 219.85C236.965 219.643 236.765 219.53 236.458 219.51H234.808V225.16C234.835 225.653 234.628 226 234.188 226.2C233.748 226.407 233.348 226.523 232.988 226.55L232.898 226.43V219.51H231.228C230.941 219.523 230.755 219.637 230.668 219.85H230.618C230.545 219.83 230.501 219.773 230.488 219.68L230.658 218.62C230.671 218.58 230.698 218.56 230.738 218.56H236.848ZM232.988 226.55C232.928 226.55 232.898 226.507 232.898 226.42C232.898 226.333 232.928 226.29 232.988 226.29C233.041 226.29 233.068 226.333 233.068 226.42C233.068 226.507 233.041 226.55 232.988 226.55ZM237.969 218.54H240.099C240.212 218.587 240.269 218.687 240.269 218.84V221.66H243.029V218.67C243.029 218.63 243.069 218.587 243.149 218.54H244.619C244.726 218.587 244.779 218.687 244.779 218.84V224.34C244.746 225.233 244.539 225.817 244.159 226.09C243.786 226.363 243.436 226.5 243.109 226.5L243.029 226.38V222.7H240.269L240.279 224.81C240.272 225.563 239.962 226.06 239.349 226.3C239.022 226.433 238.772 226.5 238.599 226.5L238.509 226.38V219.96C238.509 219.44 238.272 219.037 237.799 218.75V218.71C237.806 218.63 237.862 218.573 237.969 218.54ZM238.609 226.5C238.542 226.5 238.509 226.47 238.509 226.41C238.509 226.35 238.542 226.32 238.609 226.32C238.669 226.32 238.699 226.35 238.699 226.41C238.699 226.47 238.669 226.5 238.609 226.5ZM238.609 226.5C238.542 226.5 238.509 226.47 238.509 226.41C238.509 226.35 238.542 226.32 238.609 226.32C238.669 226.32 238.699 226.35 238.699 226.41C238.699 226.47 238.669 226.5 238.609 226.5ZM243.119 226.5C243.059 226.5 243.029 226.47 243.029 226.41C243.029 226.35 243.059 226.32 243.119 226.32C243.186 226.32 243.219 226.35 243.219 226.41C243.219 226.47 243.186 226.5 243.119 226.5ZM246.821 218.52H251.951C252.038 218.52 252.108 218.547 252.161 218.6L252.391 219.66V219.79C252.365 219.87 252.315 219.913 252.241 219.92C252.055 219.653 251.781 219.527 251.421 219.54H248.921V221.79H251.751C251.831 221.817 251.871 221.873 251.871 221.96V222.63C251.865 222.73 251.811 222.787 251.711 222.8C250.031 222.807 249.101 222.81 248.921 222.81V222.85C248.921 224.377 248.921 225.153 248.921 225.18H251.311C251.878 225.147 252.161 225.017 252.161 224.79H252.281C252.348 224.817 252.385 224.873 252.391 224.96L252.241 226.34C252.208 226.427 252.148 226.467 252.061 226.46H247.351C247.238 226.4 247.185 226.283 247.191 226.11V219.75C247.191 219.337 246.958 219.01 246.491 218.77C246.551 218.603 246.661 218.52 246.821 218.52ZM256.226 218.51H261.166C261.286 218.517 261.363 218.567 261.396 218.66C261.489 219.24 261.553 219.613 261.586 219.78C261.593 219.907 261.539 219.983 261.426 220.01C261.279 219.69 260.986 219.523 260.546 219.51H258.266V221.85H261.006C261.059 221.857 261.086 221.883 261.086 221.93V222.72C261.086 222.78 261.059 222.81 261.006 222.81H258.266V224.97C258.266 225.823 257.736 226.337 256.676 226.51H256.636C256.576 226.51 256.546 226.483 256.546 226.43V219.76C256.533 219.293 256.303 218.947 255.856 218.72C255.856 218.58 255.979 218.51 256.226 218.51ZM262.355 218.54H265.275C265.415 218.547 265.485 218.63 265.485 218.79C264.998 218.783 264.728 219.203 264.675 220.05V223.31C264.675 224.683 265.228 225.37 266.335 225.37H266.375C267.268 225.37 267.805 224.893 267.985 223.94V219.79C267.985 219.277 267.745 218.92 267.265 218.72C267.278 218.62 267.335 218.56 267.435 218.54H269.835C269.968 218.573 270.028 218.657 270.015 218.79C269.508 218.79 269.238 219.21 269.205 220.05V223.98C269.205 225.267 268.385 226.07 266.745 226.39C266.525 226.437 266.302 226.457 266.075 226.45C264.535 226.45 263.535 225.877 263.075 224.73C262.962 224.49 262.905 224.143 262.905 223.69V219.79C262.865 219.19 262.625 218.84 262.185 218.74C262.185 218.62 262.242 218.553 262.355 218.54ZM276.958 218.46C277.025 218.44 277.072 218.467 277.098 218.54L277.468 220.76C277.488 220.9 277.432 220.97 277.298 220.97H277.278L276.888 220.96C276.795 220.953 276.738 220.907 276.718 220.82C276.225 219.973 275.562 219.523 274.728 219.47C273.868 219.47 273.258 219.913 272.898 220.8C272.705 221.347 272.608 221.917 272.608 222.51C272.608 224.25 273.162 225.26 274.268 225.54C274.382 225.567 274.492 225.58 274.598 225.58H274.978C275.645 225.58 276.352 225.243 277.098 224.57C277.178 224.51 277.248 224.51 277.308 224.57L277.638 224.84C277.698 224.88 277.722 224.937 277.708 225.01C277.422 225.51 276.978 225.917 276.378 226.23C275.838 226.463 275.258 226.58 274.638 226.58C272.492 226.56 271.218 225.527 270.818 223.48C270.765 223.2 270.738 222.807 270.738 222.3C270.738 220.667 271.485 219.503 272.978 218.81C273.432 218.617 273.985 218.52 274.638 218.52C275.238 218.52 275.905 218.67 276.638 218.97C276.818 218.89 276.925 218.72 276.958 218.46ZM278.516 218.54H280.646C280.759 218.587 280.816 218.687 280.816 218.84V221.66H283.576V218.67C283.576 218.63 283.616 218.587 283.696 218.54H285.166C285.272 218.587 285.326 218.687 285.326 218.84V224.34C285.292 225.233 285.086 225.817 284.706 226.09C284.332 226.363 283.982 226.5 283.656 226.5L283.576 226.38V222.7H280.816L280.826 224.81C280.819 225.563 280.509 226.06 279.896 226.3C279.569 226.433 279.319 226.5 279.146 226.5L279.056 226.38V219.96C279.056 219.44 278.819 219.037 278.346 218.75V218.71C278.352 218.63 278.409 218.573 278.516 218.54ZM279.156 226.5C279.089 226.5 279.056 226.47 279.056 226.41C279.056 226.35 279.089 226.32 279.156 226.32C279.216 226.32 279.246 226.35 279.246 226.41C279.246 226.47 279.216 226.5 279.156 226.5ZM279.156 226.5C279.089 226.5 279.056 226.47 279.056 226.41C279.056 226.35 279.089 226.32 279.156 226.32C279.216 226.32 279.246 226.35 279.246 226.41C279.246 226.47 279.216 226.5 279.156 226.5ZM283.666 226.5C283.606 226.5 283.576 226.47 283.576 226.41C283.576 226.35 283.606 226.32 283.666 226.32C283.732 226.32 283.766 226.35 283.766 226.41C283.766 226.47 283.732 226.5 283.666 226.5ZM287.199 218.54H290.119C290.259 218.547 290.329 218.63 290.329 218.79C289.842 218.783 289.572 219.203 289.519 220.05V223.31C289.519 224.683 290.072 225.37 291.179 225.37H291.219C292.112 225.37 292.649 224.893 292.829 223.94V219.79C292.829 219.277 292.589 218.92 292.109 218.72C292.122 218.62 292.179 218.56 292.279 218.54H294.679C294.812 218.573 294.872 218.657 294.859 218.79C294.352 218.79 294.082 219.21 294.049 220.05V223.98C294.049 225.267 293.229 226.07 291.589 226.39C291.369 226.437 291.145 226.457 290.919 226.45C289.379 226.45 288.379 225.877 287.919 224.73C287.805 224.49 287.749 224.143 287.749 223.69V219.79C287.709 219.19 287.469 218.84 287.029 218.74C287.029 218.62 287.085 218.553 287.199 218.54ZM300.198 218.26H300.237C300.291 218.267 300.321 218.303 300.327 218.37L300.688 220.72C300.688 220.807 300.651 220.85 300.578 220.85H300.108C300.014 220.857 299.951 220.82 299.918 220.74C299.451 219.967 298.818 219.55 298.018 219.49C297.391 219.49 297.078 219.777 297.078 220.35C297.078 220.837 297.701 221.34 298.948 221.86C300.274 222.4 300.968 223.207 301.028 224.28C301.074 225.733 300.124 226.477 298.178 226.51C296.964 226.523 296.034 225.997 295.388 224.93C295.361 224.863 295.361 224.807 295.388 224.76L295.748 224.37C295.834 224.343 295.904 224.367 295.958 224.44C296.578 225.167 297.304 225.543 298.138 225.57C299.018 225.57 299.458 225.267 299.458 224.66C299.424 224.307 298.791 223.8 297.558 223.14C296.531 222.507 295.888 221.873 295.628 221.24C295.514 220.967 295.484 220.613 295.538 220.18C295.838 219.067 296.724 218.52 298.198 218.54C298.771 218.567 299.271 218.693 299.698 218.92C299.931 218.827 300.098 218.607 300.198 218.26ZM309.289 218.26H309.329C309.383 218.267 309.413 218.303 309.419 218.37L309.779 220.72C309.779 220.807 309.743 220.85 309.669 220.85H309.199C309.106 220.857 309.043 220.82 309.009 220.74C308.543 219.967 307.909 219.55 307.109 219.49C306.483 219.49 306.169 219.777 306.169 220.35C306.169 220.837 306.793 221.34 308.039 221.86C309.366 222.4 310.059 223.207 310.119 224.28C310.166 225.733 309.216 226.477 307.269 226.51C306.056 226.523 305.126 225.997 304.479 224.93C304.453 224.863 304.453 224.807 304.479 224.76L304.839 224.37C304.926 224.343 304.996 224.367 305.049 224.44C305.669 225.167 306.396 225.543 307.229 225.57C308.109 225.57 308.549 225.267 308.549 224.66C308.516 224.307 307.883 223.8 306.649 223.14C305.623 222.507 304.979 221.873 304.719 221.24C304.606 220.967 304.576 220.613 304.629 220.18C304.929 219.067 305.816 218.52 307.289 218.54C307.863 218.567 308.363 218.693 308.789 218.92C309.023 218.827 309.189 218.607 309.289 218.26ZM313.692 218.57H314.732C314.918 218.557 315.038 218.633 315.092 218.8C316.812 223.787 317.672 226.317 317.672 226.39C317.672 226.443 317.645 226.47 317.592 226.47H317.162C316.355 226.47 315.762 225.987 315.382 225.02C315.242 224.647 315.165 224.44 315.152 224.4H312.552C312.538 224.433 312.348 225.017 311.982 226.15C311.935 226.237 311.845 226.31 311.712 226.37C311.478 226.463 311.205 226.497 310.892 226.47C310.838 226.47 310.812 226.443 310.812 226.39C311.025 225.623 311.865 223.093 313.332 218.8C313.398 218.64 313.518 218.563 313.692 218.57ZM313.892 220.32L312.862 223.44H314.872V223.4L313.932 220.32H313.892ZM317.401 218.56H320.031C320.184 218.56 320.291 218.64 320.351 218.8C320.058 218.827 319.884 219.013 319.831 219.36C320.851 222.627 321.394 224.26 321.461 224.26L323.101 219.4C323.101 219.16 322.928 218.96 322.581 218.8C322.634 218.64 322.741 218.56 322.901 218.56H324.771C324.958 218.56 325.051 218.657 325.051 218.85C324.578 218.963 324.274 219.147 324.141 219.4L321.771 226.33C321.618 226.403 321.448 226.443 321.261 226.45C320.734 226.463 320.374 226.16 320.181 225.54C318.841 221.873 318.071 219.813 317.871 219.36C317.584 219.02 317.321 218.85 317.081 218.85V218.76C317.148 218.627 317.254 218.56 317.401 218.56ZM326.401 218.52H331.531C331.618 218.52 331.688 218.547 331.741 218.6L331.971 219.66V219.79C331.945 219.87 331.895 219.913 331.821 219.92C331.635 219.653 331.361 219.527 331.001 219.54H328.501V221.79H331.331C331.411 221.817 331.451 221.873 331.451 221.96V222.63C331.445 222.73 331.391 222.787 331.291 222.8C329.611 222.807 328.681 222.81 328.501 222.81V222.85C328.501 224.377 328.501 225.153 328.501 225.18H330.891C331.458 225.147 331.741 225.017 331.741 224.79H331.861C331.928 224.817 331.965 224.873 331.971 224.96L331.821 226.34C331.788 226.427 331.728 226.467 331.641 226.46H326.931C326.818 226.4 326.765 226.283 326.771 226.11V219.75C326.771 219.337 326.538 219.01 326.071 218.77C326.131 218.603 326.241 218.52 326.401 218.52ZM341.926 218.56C341.973 218.567 342.006 218.59 342.026 218.63L342.276 219.71C342.263 219.803 342.216 219.85 342.136 219.85C342.043 219.643 341.843 219.53 341.536 219.51H339.886V225.16C339.913 225.653 339.706 226 339.266 226.2C338.826 226.407 338.426 226.523 338.066 226.55L337.976 226.43V219.51H336.306C336.019 219.523 335.833 219.637 335.746 219.85H335.696C335.623 219.83 335.579 219.773 335.566 219.68L335.736 218.62C335.749 218.58 335.776 218.56 335.816 218.56H341.926ZM338.066 226.55C338.006 226.55 337.976 226.507 337.976 226.42C337.976 226.333 338.006 226.29 338.066 226.29C338.119 226.29 338.146 226.333 338.146 226.42C338.146 226.507 338.119 226.55 338.066 226.55ZM343.047 218.54H345.177C345.29 218.587 345.347 218.687 345.347 218.84V221.66H348.107V218.67C348.107 218.63 348.147 218.587 348.227 218.54H349.697C349.804 218.587 349.857 218.687 349.857 218.84V224.34C349.824 225.233 349.617 225.817 349.237 226.09C348.864 226.363 348.514 226.5 348.187 226.5L348.107 226.38V222.7H345.347L345.357 224.81C345.35 225.563 345.04 226.06 344.427 226.3C344.1 226.433 343.85 226.5 343.677 226.5L343.587 226.38V219.96C343.587 219.44 343.35 219.037 342.877 218.75V218.71C342.884 218.63 342.94 218.573 343.047 218.54ZM343.687 226.5C343.62 226.5 343.587 226.47 343.587 226.41C343.587 226.35 343.62 226.32 343.687 226.32C343.747 226.32 343.777 226.35 343.777 226.41C343.777 226.47 343.747 226.5 343.687 226.5ZM343.687 226.5C343.62 226.5 343.587 226.47 343.587 226.41C343.587 226.35 343.62 226.32 343.687 226.32C343.747 226.32 343.777 226.35 343.777 226.41C343.777 226.47 343.747 226.5 343.687 226.5ZM348.197 226.5C348.137 226.5 348.107 226.47 348.107 226.41C348.107 226.35 348.137 226.32 348.197 226.32C348.264 226.32 348.297 226.35 348.297 226.41C348.297 226.47 348.264 226.5 348.197 226.5ZM351.899 218.52H357.029C357.116 218.52 357.186 218.547 357.239 218.6L357.469 219.66V219.79C357.443 219.87 357.393 219.913 357.319 219.92C357.133 219.653 356.859 219.527 356.499 219.54H353.999V221.79H356.829C356.909 221.817 356.949 221.873 356.949 221.96V222.63C356.943 222.73 356.889 222.787 356.789 222.8C355.109 222.807 354.179 222.81 353.999 222.81V222.85C353.999 224.377 353.999 225.153 353.999 225.18H356.389C356.956 225.147 357.239 225.017 357.239 224.79H357.359C357.426 224.817 357.463 224.873 357.469 224.96L357.319 226.34C357.286 226.427 357.226 226.467 357.139 226.46H352.429C352.316 226.4 352.263 226.283 352.269 226.11V219.75C352.269 219.337 352.036 219.01 351.569 218.77C351.629 218.603 351.739 218.52 351.899 218.52ZM361.084 218.54H363.214C363.327 218.587 363.384 218.687 363.384 218.84V221.66H366.144V218.67C366.144 218.63 366.184 218.587 366.264 218.54H367.734C367.841 218.587 367.894 218.687 367.894 218.84V224.34C367.861 225.233 367.654 225.817 367.274 226.09C366.901 226.363 366.551 226.5 366.224 226.5L366.144 226.38V222.7H363.384L363.394 224.81C363.387 225.563 363.077 226.06 362.464 226.3C362.137 226.433 361.887 226.5 361.714 226.5L361.624 226.38V219.96C361.624 219.44 361.387 219.037 360.914 218.75V218.71C360.921 218.63 360.977 218.573 361.084 218.54ZM361.724 226.5C361.657 226.5 361.624 226.47 361.624 226.41C361.624 226.35 361.657 226.32 361.724 226.32C361.784 226.32 361.814 226.35 361.814 226.41C361.814 226.47 361.784 226.5 361.724 226.5ZM361.724 226.5C361.657 226.5 361.624 226.47 361.624 226.41C361.624 226.35 361.657 226.32 361.724 226.32C361.784 226.32 361.814 226.35 361.814 226.41C361.814 226.47 361.784 226.5 361.724 226.5ZM366.234 226.5C366.174 226.5 366.144 226.47 366.144 226.41C366.144 226.35 366.174 226.32 366.234 226.32C366.301 226.32 366.334 226.35 366.334 226.41C366.334 226.47 366.301 226.5 366.234 226.5ZM369.38 222.47C369.38 221.843 369.474 221.28 369.66 220.78C369.854 220.28 370.117 219.857 370.45 219.51C370.784 219.163 371.18 218.9 371.64 218.72C372.107 218.533 372.614 218.44 373.16 218.44C373.707 218.44 374.21 218.533 374.67 218.72C375.137 218.9 375.537 219.163 375.87 219.51C376.204 219.857 376.464 220.28 376.65 220.78C376.844 221.28 376.94 221.843 376.94 222.47C376.94 223.097 376.844 223.66 376.65 224.16C376.464 224.66 376.204 225.083 375.87 225.43C375.537 225.777 375.137 226.04 374.67 226.22C374.21 226.407 373.707 226.5 373.16 226.5C372.614 226.5 372.107 226.407 371.64 226.22C371.18 226.04 370.784 225.777 370.45 225.43C370.117 225.083 369.854 224.66 369.66 224.16C369.474 223.66 369.38 223.097 369.38 222.47ZM375.08 222.47C375.08 221.99 375.034 221.563 374.94 221.19C374.847 220.81 374.717 220.487 374.55 220.22C374.384 219.953 374.18 219.75 373.94 219.61C373.707 219.47 373.447 219.4 373.16 219.4C372.874 219.4 372.61 219.47 372.37 219.61C372.137 219.75 371.937 219.953 371.77 220.22C371.604 220.487 371.474 220.81 371.38 221.19C371.287 221.563 371.24 221.99 371.24 222.47C371.24 222.95 371.287 223.38 371.38 223.76C371.474 224.133 371.604 224.453 371.77 224.72C371.937 224.987 372.137 225.19 372.37 225.33C372.61 225.47 372.874 225.54 373.16 225.54C373.447 225.54 373.707 225.47 373.94 225.33C374.18 225.19 374.384 224.987 374.55 224.72C374.717 224.453 374.847 224.133 374.94 223.76C375.034 223.38 375.08 222.95 375.08 222.47ZM378.089 218.54H380.079C380.312 218.533 380.482 218.617 380.589 218.79L383.829 223.36V220.08C383.829 219.44 383.579 218.997 383.079 218.75C383.119 218.61 383.215 218.54 383.369 218.54H385.609C385.689 218.567 385.745 218.62 385.779 218.7V218.79C385.272 218.91 385.009 219.297 384.989 219.95V226.32C384.982 226.4 384.925 226.457 384.819 226.49H384.179C383.892 226.49 383.652 226.343 383.459 226.05L379.709 220.49V225.16C379.709 225.82 379.459 226.25 378.959 226.45C378.752 226.51 378.625 226.54 378.579 226.54L378.539 226.45V220.08C378.539 219.44 378.289 218.997 377.789 218.75C377.835 218.61 377.935 218.54 378.089 218.54ZM378.579 226.54C378.552 226.54 378.539 226.513 378.539 226.46C378.539 226.413 378.552 226.39 378.579 226.39C378.619 226.39 378.639 226.413 378.639 226.46C378.639 226.513 378.619 226.54 378.579 226.54ZM386.721 218.53H388.721C388.761 218.53 388.801 218.573 388.841 218.66V222.35H388.881L390.881 219.49L390.901 219.35C390.901 219.09 390.731 218.887 390.391 218.74V218.7C390.438 218.587 390.534 218.53 390.681 218.53H392.961C393.154 218.53 393.251 218.613 393.251 218.78C392.744 218.887 392.368 219.133 392.121 219.52L390.681 221.6C392.001 224.08 392.764 225.4 392.971 225.56C393.218 225.813 393.528 226.047 393.901 226.26V226.31C393.888 226.37 393.848 226.41 393.781 226.43L392.971 226.45C392.164 226.49 391.521 226.19 391.041 225.55L389.631 222.98H389.621L388.841 223.96V224.88C388.841 225.74 388.298 226.257 387.211 226.43L387.171 226.35V220.55C387.171 219.49 386.928 218.9 386.441 218.78V218.74C386.481 218.6 386.574 218.53 386.721 218.53ZM387.211 226.43C387.184 226.43 387.171 226.417 387.171 226.39C387.171 226.363 387.171 226.337 387.171 226.31C387.224 226.337 387.251 226.363 387.251 226.39C387.251 226.417 387.238 226.43 387.211 226.43ZM397.5 218.57H398.54C398.727 218.557 398.847 218.633 398.9 218.8C400.62 223.787 401.48 226.317 401.48 226.39C401.48 226.443 401.453 226.47 401.4 226.47H400.97C400.163 226.47 399.57 225.987 399.19 225.02C399.05 224.647 398.973 224.44 398.96 224.4H396.36C396.347 224.433 396.157 225.017 395.79 226.15C395.743 226.237 395.653 226.31 395.52 226.37C395.287 226.463 395.013 226.497 394.7 226.47C394.647 226.47 394.62 226.443 394.62 226.39C394.833 225.623 395.673 223.093 397.14 218.8C397.207 218.64 397.327 218.563 397.5 218.57ZM397.7 220.32L396.67 223.44H398.68V223.4L397.74 220.32H397.7ZM402.465 218.52H405.325C405.438 218.56 405.508 218.63 405.535 218.73V218.77C405.061 219.057 404.825 219.4 404.825 219.8V225.21C404.825 225.61 405.061 225.953 405.535 226.24V226.28C405.515 226.393 405.445 226.46 405.325 226.48H402.465C402.331 226.46 402.261 226.393 402.255 226.28V226.24C402.735 225.953 402.975 225.61 402.975 225.21V219.8C402.975 219.4 402.735 219.057 402.255 218.77V218.73C402.281 218.63 402.351 218.56 402.465 218.52Z" fill="black"/>
</svg>
